<?xml version="1.0" encoding="iso-8859-1"?>
<!-- Generator: Adobe Illustrator 17.1.0, SVG Export Plug-In . SVG Version: 6.00 Build 0)  -->
<!DOCTYPE svg PUBLIC "-//W3C//DTD SVG 1.1//EN" "http://www.w3.org/Graphics/SVG/1.1/DTD/svg11.dtd">
<svg xmlns="http://www.w3.org/2000/svg" xmlns:xlink="http://www.w3.org/1999/xlink" version="1.1" id="Capa_1" x="0px" y="0px" viewBox="0 0 450 450" style="enable-background:new 0 0 450 450;" xml:space="preserve" width="512px" height="512px">
<g>
	<path d="M225,267H107c-5.522,0-10,4.478-10,10v120c0,5.522,4.478,10,10,10h118c5.522,0,10-4.478,10-10V277   C235,271.478,230.522,267,225,267z M215,387h-98V287h98V387z"  fill="white"/>
	<path d="M426,170.333c0-1.46-0.319-2.903-0.937-4.227l-30-64.333C393.421,98.252,389.887,96,386,96h-50V76h10   c5.522,0,10-4.478,10-10V10c0-5.522-4.478-10-10-10H104c-5.522,0-10,4.478-10,10v56c0,5.522,4.478,10,10,10h10v20H64   c-3.887,0-7.421,2.252-9.063,5.773l-30,64.333C24.319,167.43,24,168.873,24,170.333c0,24.39,11.923,46.038,30.237,59.453   c-0.151,0.692-0.237,1.409-0.237,2.146V440c0,5.522,4.478,10,10,10h322c5.522,0,10-4.478,10-10V231.932   c0-0.737-0.085-1.454-0.237-2.146C414.077,216.371,426,194.723,426,170.333z M114,20h222v36H114V20z M134,76h182v20H134V76z    M44.042,172.461L70.37,116h89.289l-3.544,22.797c-0.849,5.457,2.888,10.569,8.345,11.417c0.521,0.081,1.037,0.12,1.549,0.12   c4.845,0,9.102-3.528,9.868-8.465L179.898,116h90.204l4.021,25.869c0.767,4.937,5.023,8.465,9.868,8.465   c0.511,0,1.028-0.039,1.549-0.12c5.457-0.848,9.193-5.96,8.345-11.417L290.341,116h89.289l26.328,56.461   C404.839,201.071,381.214,224,352.333,224c-26.174,0-48.017-18.839-52.717-43.667H386c5.522,0,10-4.478,10-10s-4.478-10-10-10H64   c-5.522,0-10,4.478-10,10s4.478,10,10,10h86.384C145.684,205.161,123.841,224,97.667,224C68.786,224,45.161,201.071,44.042,172.461   z M277.718,180.333C273.018,205.161,251.174,224,225,224s-48.018-18.839-52.718-43.667H277.718z M333,430h-55V287h55V430z M376,430   h-23V277c0-5.522-4.478-10-10-10h-75c-5.522,0-10,4.478-10,10v153H74V240.077c7.434,2.53,15.388,3.923,23.667,3.923   c27.13,0,50.883-14.743,63.666-36.638C174.117,229.257,197.869,244,225,244s50.883-14.743,63.667-36.638   C301.45,229.257,325.203,244,352.333,244c8.279,0,16.233-1.393,23.667-3.923V430z" fill="white"/>
</g>
<g>
</g>
<g>
</g>
<g>
</g>
<g>
</g>
<g>
</g>
<g>
</g>
<g>
</g>
<g>
</g>
<g>
</g>
<g>
</g>
<g>
</g>
<g>
</g>
<g>
</g>
<g>
</g>
<g>
</g>
</svg>
