<?xml version="1.0" encoding="iso-8859-1"?>
<!-- Generator: Adobe Illustrator 18.0.0, SVG Export Plug-In . SVG Version: 6.00 Build 0)  -->
<!DOCTYPE svg PUBLIC "-//W3C//DTD SVG 1.1//EN" "http://www.w3.org/Graphics/SVG/1.1/DTD/svg11.dtd">
<svg xmlns="http://www.w3.org/2000/svg" xmlns:xlink="http://www.w3.org/1999/xlink" version="1.1" id="Capa_1" x="0px" y="0px" viewBox="0 0 214.355 214.355" style="enable-background:new 0 0 214.355 214.355;" xml:space="preserve" width="512px" height="512px">
<g>
	<path d="M185.536,93.624l-8.534-42.235c-2.969-14.698-16.007-25.367-31.003-25.367h-14.338V11.678c0-3.313-2.687-6-6-6H88.694   c-3.313,0-6,2.687-6,6v14.344H68.356c-14.996,0-28.034,10.668-31.003,25.366l-8.534,42.236C12.592,95.685,0,109.569,0,126.348   v39.209c0,3.313,2.687,6,6,6h9.902v19.723c0,9.593,7.805,17.397,17.397,17.397h2.146c9.593,0,17.396-7.805,17.396-17.397v-19.723   h108.67v19.723c0,9.593,7.804,17.397,17.396,17.397h2.146c9.593,0,17.397-7.805,17.397-17.397v-19.723h9.902c3.313,0,6-2.687,6-6   v-39.209C214.355,109.569,201.764,95.685,185.536,93.624z M48.481,56.9h117.392l7.365,36.45H41.117L48.481,56.9z M94.694,17.678   h24.967v8.344H94.694V17.678z M68.356,38.021h77.643c5.873,0,11.257,2.641,14.898,6.878H53.458   C57.099,40.662,62.483,38.021,68.356,38.021z M40.843,191.28c0,2.976-2.421,5.397-5.396,5.397H33.3   c-2.977,0-5.397-2.421-5.397-5.397v-19.723h12.94V191.28z M186.453,191.28c0,2.976-2.421,5.397-5.397,5.397h-2.146   c-2.976,0-5.396-2.421-5.396-5.397v-19.723h12.94V191.28z M202.355,159.558H12v-33.209c0-11.579,9.42-20.999,20.999-20.999h148.357   c11.579,0,20.999,9.42,20.999,20.999V159.558z" fill="white"/>
	<path d="M44.339,116.599c-8.743,0-15.855,7.112-15.855,15.855s7.112,15.855,15.855,15.855c8.742,0,15.854-7.112,15.854-15.855   S53.081,116.599,44.339,116.599z M44.339,136.309c-2.126,0-3.855-1.729-3.855-3.855s1.729-3.855,3.855-3.855   c2.125,0,3.854,1.729,3.854,3.855S46.464,136.309,44.339,136.309z" fill="white"/>
	<path d="M170.017,116.599c-8.742,0-15.854,7.112-15.854,15.855s7.112,15.855,15.854,15.855c8.743,0,15.855-7.112,15.855-15.855   S178.76,116.599,170.017,116.599z M170.017,136.309c-2.125,0-3.854-1.729-3.854-3.855s1.729-3.855,3.854-3.855   c2.126,0,3.855,1.729,3.855,3.855S172.143,136.309,170.017,136.309z" fill="white"/>
</g>
<g>
</g>
<g>
</g>
<g>
</g>
<g>
</g>
<g>
</g>
<g>
</g>
<g>
</g>
<g>
</g>
<g>
</g>
<g>
</g>
<g>
</g>
<g>
</g>
<g>
</g>
<g>
</g>
<g>
</g>
</svg>
