<?xml version="1.0" encoding="iso-8859-1"?>
<!-- Generator: Adobe Illustrator 19.0.0, SVG Export Plug-In . SVG Version: 6.00 Build 0)  -->
<svg version="1.1" id="Capa_1" xmlns="http://www.w3.org/2000/svg" xmlns:xlink="http://www.w3.org/1999/xlink" x="0px" y="0px"
	 viewBox="0 0 474.449 474.449" style="enable-background:new 0 0 474.449 474.449;" xml:space="preserve">
<g>
	<g>
		<g>
			<g>

				<path style="fill:white;" d="M248.205,113.622c-3.178-3.178-7.31-4.704-11.473-4.64c-4.227-0.064-8.391,1.462-11.569,4.64
					l-106.312,94.044c-6.229,6.229-6.229,16.368,0,22.597c6.229,6.261,16.368,6.261,22.597,0l95.22-84.255l95.22,84.255
					c6.229,6.261,16.4,6.261,22.597,0c6.229-6.229,6.229-16.368,0-22.597L248.205,113.622z"/>
				<path style="fill:white;" d="M248.205,227.594c-3.178-3.178-7.31-4.704-11.473-4.64c-4.227-0.064-8.391,1.462-11.569,4.64
					l-106.312,94.013c-6.229,6.261-6.229,16.4,0,22.597c6.229,6.261,16.368,6.261,22.597,0l95.22-84.192l95.22,84.192
					c6.229,6.261,16.4,6.261,22.597,0c6.229-6.198,6.229-16.336,0-22.597L248.205,227.594z"/>
			</g>
		</g>
	</g>
</g>
<g>
</g>
<g>
</g>
<g>
</g>
<g>
</g>
<g>
</g>
<g>
</g>
<g>
</g>
<g>
</g>
<g>
</g>
<g>
</g>
<g>
</g>
<g>
</g>
<g>
</g>
<g>
</g>
<g>
</g>
</svg>
