<?xml version="1.0" encoding="iso-8859-1"?>
<!-- Generator: Adobe Illustrator 18.1.1, SVG Export Plug-In . SVG Version: 6.00 Build 0)  -->
<svg version="1.1" id="Capa_1" xmlns="http://www.w3.org/2000/svg" xmlns:xlink="http://www.w3.org/1999/xlink" x="0px" y="0px"
	 viewBox="0 0 612 612" style="enable-background:new 0 0 612 612;" xml:space="preserve">
<g>
	<path fill="white" d="M612,336.604c0-30.184-18.865-55.058-45.276-64.91v-92.02c0-15.861-12.856-29.416-29.416-29.416h-38.499v-43.041
		c0-20.402-16.629-31.721-32.42-31.721H50.587c-24.874,0-45.276,18.097-49.818,41.503l0,0C0,120.003,0,123.008,0,126.781
		c0,3.004,0,5.31,0.769,7.546v24.874C0,160.738,0,162.205,0,163.743v321.476c0,27.948,22.638,51.285,51.285,51.285h486.721
		c15.861,0,29.416-12.856,29.416-29.416V401.514C593.135,391.732,612,366.788,612,336.604z M50.587,103.444h415.802
		c4.542,0,4.542,1.537,4.542,3.773v43.041h-43.04h-33.957H50.587c-1.537,0-3.004,0-4.542-0.769c-0.769,0-0.769,0-1.537-0.769
		c-0.769,0-1.537-0.769-2.236-0.769c-0.769,0-0.769-0.769-1.537-0.769c-0.769,0-1.537-0.769-2.236-0.769
		c-0.769,0-0.769-0.769-1.537-1.537c-0.769-0.769-0.769-0.769-1.537-1.537c-0.769-0.769-0.769-0.769-1.537-1.537
		c-0.769-0.769-0.769-0.769-0.769-1.537c-0.769-0.769-0.769-1.537-1.537-2.236l-0.769-0.769c-0.769-0.769-0.769-1.537-1.537-3.004
		l0,0c-0.769-1.537-0.769-2.236-0.769-3.773l0,0c0-1.537-0.769-2.236-0.769-3.773s0-2.236,0.769-3.773l0,0v-0.769
		C30.184,111.759,39.268,103.444,50.587,103.444z M538.775,507.927c0,0.769-0.769,1.537-1.537,1.537H50.587
		c-12.856,0-23.407-10.551-23.407-23.407v-313.93c0.769,0,0.769,0,1.537,0.769c0.769,0.769,2.236,0.769,3.004,1.537
		c0.769,0,1.537,0.769,2.236,0.769c0.769,0.769,2.236,0.769,3.773,0.769c0.769,0,1.537,0,2.236,0.769
		c1.537,0,2.236,0.769,3.773,0.769c0.769,0,1.537,0,1.537,0c1.537,0,3.773,0,6.009,0h341.11c0.769,0,0.769,0,1.537,0h33.957h0.769
		h55.827h52.822c0.769,0,1.537,0.769,1.537,1.537v87.548H470.93c-38.499,0-69.452,30.953-69.452,69.452l0,0l0,0
		c0,38.499,30.953,69.452,69.452,69.452h67.915v102.431H538.775z M550.094,377.338L550.094,377.338
		c-3.005,0.769-5.31,0.769-7.546,0.769h-71.688c-22.638,0-41.503-18.865-41.503-41.503s18.865-41.503,41.503-41.503h71.688
		c2.236,0,5.31,0,7.546,0.769l0,0c19.634,3.773,33.957,20.402,33.957,40.735S569.728,373.565,550.094,377.338z M496.573,336.604
		c0,8.315-6.777,15.092-15.092,15.092s-15.092-6.777-15.092-15.092c0-8.315,6.777-15.092,15.092-15.092
		S496.573,328.289,496.573,336.604z"/>
</g>
<g>
</g>
<g>
</g>
<g>
</g>
<g>
</g>
<g>
</g>
<g>
</g>
<g>
</g>
<g>
</g>
<g>
</g>
<g>
</g>
<g>
</g>
<g>
</g>
<g>
</g>
<g>
</g>
<g>
</g>
</svg>
